HIERARCHY
ROOT Hips
{
  OFFSET 33.3793 31.2306 -136.493
  CHANNELS 6 Xposition Yposition Zposition Zrotation Xrotation Yrotation
  JOINT RightUpLeg
  {
    OFFSET -8.9458 -8.66707 0.101652
    CHANNELS 3 Zrotation Xrotation Yrotation
    JOINT RightLeg
    {
      OFFSET 0 -44.4227 1.3727
      CHANNELS 3 Zrotation Xrotation Yrotation
      JOINT RightFoot
      {
        OFFSET 0.253549 -42.0924 -1.46059
        CHANNELS 3 Zrotation Xrotation Yrotation
        JOINT RightToes
        {
          OFFSET 0.04 -4.41509 8.4991
          CHANNELS 3 Zrotation Xrotation Yrotation
          End Site
          {
            OFFSET -0.08 -0.137448 9.77979
          }
        }
      }
    }
  }
  JOINT Spine
  {
    OFFSET 0 11.8905 0
    CHANNELS 3 Zrotation Xrotation Yrotation
    JOINT Spine1
    {
      OFFSET 0 25.6574 0.127663
      CHANNELS 3 Zrotation Xrotation Yrotation
      JOINT HEad
      {
        OFFSET 0 8.73416 0.011341
        CHANNELS 3 Zrotation Xrotation Yrotation
        End Site
        {
          OFFSET -0.29 12.7742 2.51395
        }
      }
      JOINT LeftShoulder1
      {
        OFFSET 8.99 -0.362252 -0.22
        CHANNELS 3 Zrotation Xrotation Yrotation
        JOINT LeftArm
        {
          OFFSET 10.2827 -0.00338 0.322123
          CHANNELS 3 Zrotation Xrotation Yrotation
          JOINT LeftForeArm
          {
            OFFSET 32.7669 0.099144 -1.42434
            CHANNELS 3 Zrotation Xrotation Yrotation
            JOINT LeftHand
            {
              OFFSET 27.5643 0.085362 1.02216
              CHANNELS 3 Zrotation Xrotation Yrotation
              End Site
              {
                OFFSET 16.7443 -0.6 1.50291
              }
            }
          }
        }
      }
      JOINT RightShoulder
      {
        OFFSET -8.99 -0.362252 -0.22
        CHANNELS 3 Zrotation Xrotation Yrotation
        JOINT RightArm
        {
          OFFSET -10.2827 -0.00338 0.322123
          CHANNELS 3 Zrotation Xrotation Yrotation
          JOINT RightForeArm
          {
            OFFSET -32.8971 0.099144 -1.42434
            CHANNELS 3 Zrotation Xrotation Yrotation
            JOINT RightHand
            {
              OFFSET -27.4921 0.085362 1.02216
              CHANNELS 3 Zrotation Xrotation Yrotation
              End Site
              {
                OFFSET -16.6312 -0.6 1.50291
              }
            }
          }
        }
      }
    }
  }
  JOINT LeftUpLeg
  {
    OFFSET 8.9458 -8.66707 0.101652
    CHANNELS 3 Zrotation Xrotation Yrotation
    JOINT LeftLeg
    {
      OFFSET 0 -44.4227 1.3727
      CHANNELS 3 Zrotation Xrotation Yrotation
      JOINT LeftFoot
      {
        OFFSET -0.253549 -42.0924 -1.46059
        CHANNELS 3 Zrotation Xrotation Yrotation
        JOINT LeftToes
        {
          OFFSET -0.04 -4.41509 8.4991
          CHANNELS 3 Zrotation Xrotation Yrotation
          End Site
          {
            OFFSET 0.08 -0.047448 9.77979
          }
        }
      }
    }
  }
}
MOTION
Frames:	8
Frame Time:	0.0166667
73.9233 62.4413 -116.467 -8.95517 3.04192 -29.0634 -26.4246 -48.4064 -1.69324 -21.193 83.6331 32.9508 28.4595 -17.5593 3.82663 0.0462048 0.000533403 0.662642 6.78417 12.1983 -3.01435 1.4828 6.34458 -0.166546 5.41457 -3.19844 7.87506 1.59028e-015 1.59028e-015 6.36111e-015 -126.557 -15.882 -150.455 -94.0202 43.8929 -29.8075 5.18127 29.0151 -2.35866 12.6746 14.5258 13.5869 106.349 13.2573 146.241 68.2958 52.0416 53.3323 -4.59983 21.9569 -2.79692 35.7092 -65.061 43.6678 85.5226 81.4604 -73.6199 66.9106 11.0712 -3.51126 -1.00516e-008 1.56021e-007 -4.87132e-009 
77.6933 67.5274 -114.612 -9.95825 3.4663 -32.4318 -23.0705 -42.9983 -6.2465 -19.277 82.9638 34.5746 24.2461 -16.4071 1.99625 0.0462048 0.000533403 0.662642 9.59073 10.6469 -4.84932 1.41744 6.0694 -0.151776 2.36808 2.6299 9.53085 -2.38542e-015 0 3.18055e-015 -131.097 -22.4337 -150.129 -95.4822 45.3036 -30.2228 5.57031 28.834 0.220558 9.1635 16.675 17.3459 107.257 9.94625 143.882 69.1796 51.947 53.4018 -5.41393 27.113 -1.51377 30.2152 -60.9153 38.5104 69.5019 79.0972 -54.9869 45.3943 6.84035 0.800372 -1.00516e-008 1.56021e-007 -4.87132e-009 
81.1305 72.4063 -112.877 -10.5513 3.69697 -35.3046 -19.304 -36.9774 -10.9309 -26.4598 82.5887 44.2607 25.8902 -13.761 1.83733 0.0462048 0.000533403 0.662642 11.6328 9.52478 -6.22218 1.35173 5.78344 -0.139427 -0.743345 7.462 11.0083 1.59028e-015 -2.38542e-015 3.18055e-015 -135.542 -28.1615 -149.872 -96.8344 46.9064 -30.7509 5.9865 28.1694 -1.71969 6.28334 18.1402 20.5333 107.903 6.33554 141.262 70.2387 51.8969 53.5594 -4.49244 22.5856 -1.97641 25.2715 -56.4036 32.9109 56.6535 75.9593 -41.774 23.6872 1.69962 2.5665 -1.00516e-008 1.56021e-007 -4.87132e-009 
84.3202 76.9199 -111.286 -10.7431 3.75044 -37.7811 -14.8247 -30.7677 -15.2601 -37.2032 82.9093 56.6075 27.7788 -11.2753 1.50292 0.0462048 0.000533403 0.662642 12.9539 8.73978 -7.1401 1.28407 5.48874 -0.127408 -3.72704 11.4046 12.3072 -2.38542e-015 3.97569e-015 6.36111e-015 -139.876 -33.0921 -149.903 -98.0118 48.4391 -31.2161 6.26842 28.1327 -0.103531 4.09396 19.1337 22.9575 108.21 2.53169 138.416 71.3465 51.9491 53.9125 -4.71565 25.8172 -1.52989 19.9475 -51.6336 26.7829 48.566 71.7041 -36.186 11.2871 -2.579 2.51499 -1.00516e-008 1.56021e-007 -4.87131e-009 
87.2454 81.0521 -109.945 -8.6126 3.26663 -40.4442 -11.3148 -25.4242 -18.3296 -44.3377 83.5083 64.4431 29.1002 -8.82928 0.745704 0.0462048 0.000533403 0.662642 11.7716 7.44758 -6.85658 1.21438 5.18743 -0.115259 -6.43349 14.5639 13.4033 1.59028e-015 1.19271e-015 -6.36111e-015 -143.98 -37.2083 -150.017 -99.0049 49.9697 -31.603 6.55706 27.4175 -1.36061 2.37869 19.7426 24.7348 108.384 -1.31992 135.439 72.4286 52.1452 54.3637 -4.30964 23.1674 -1.57532 14.4532 -48.0208 21.9171 42.0733 66.7615 -32.6805 -1.01774 -6.50596 1.79873 -1.00516e-008 1.56021e-007 -4.87131e-009 
89.9576 85.1225 -108.747 -6.62995 2.68469 -42.7393 -6.85347 -20.7373 -20.4667 -36.8271 82.9703 55.9013 16.3246 -7.1755 -2.33554 0.0462048 0.000533403 0.662642 9.6797 7.32282 -5.55293 1.0716 4.94652 -0.0594921 -7.60375 16.2279 13.4959 7.95139e-016 -1.98785e-015 6.36111e-015 -146.789 -39.5097 -150.026 -99.7629 51.4371 -31.9435 6.87176 27.1993 -0.485359 2.4258 19.1127 25.1805 108.313 -5.13408 132.217 73.4511 52.571 54.9031 -4.31183 24.986 -1.20399 8.92794 -44.1572 16.1679 36.7022 60.2315 -29.632 -13.6817 -9.3468 0.124218 -1.00516e-008 1.56021e-007 -4.87131e-009 
92.4208 88.3981 -107.984 -2.84102 1.8497 -45.505 -4.47326 -16.6005 -20.5973 -20.1673 79.4981 37.8146 12.6146 -5.39138 -2.32373 0.0462048 0.000533403 0.662642 5.93012 6.14886 -3.21885 1.07789 4.5614 -0.0992593 -8.64836 17.5916 13.62 7.95139e-016 -2.78299e-015 -3.18055e-015 -149.275 -41.5482 -149.709 -100.24 52.8182 -32.2938 7.0854 26.4767 -1.4994 2.80143 18.4724 25.1013 107.923 -8.71356 128.706 74.2947 53.1726 55.4903 -4.29211 23.6869 -1.0221 2.93045 -41.6656 11.1549 34.5541 52.8715 -28.2731 -27.2653 -10.9703 -2.22922 -1.00516e-008 1.56021e-007 -4.87131e-009 
94.5096 91.1183 -107.481 0.364122 1.02878 -47.915 -2.2812 -11.967 -19.8993 -8.30415 72.5333 23.6528 4.52838 -4.78545 -2.60184 0.0462048 0.000533403 0.662642 2.58439 5.05534 -1.0934 1.00799 4.24126 -0.0928819 -9.30445 18.5351 13.6569 -7.95139e-016 3.97569e-016 9.54166e-015 -151.138 -43.2183 -149.093 -100.42 54.0095 -32.7232 7.27938 26.2038 -1.14817 3.65656 17.6711 24.6351 107.237 -12.0046 125.022 74.8195 53.9123 56.1703 -4.38437 24.7372 -0.44452 -2.54199 -38.4854 5.39423 33.8624 44.5367 -26.4447 -41.5465 -10.8706 -4.6843 -1.00516e-008 1.56021e-007 -4.87131e-009 
